<svg width="20" height="20" viewBox="0 0 20 20" fill="none" xmlns="http://www.w3.org/2000/svg">
<path d="M10 1.66666C5.39169 1.66666 1.66669 5.39166 1.66669 9.99999C1.66669 14.6083 5.39169 18.3333 10 18.3333C14.6084 18.3333 18.3334 14.6083 18.3334 9.99999C18.3334 5.39166 14.6084 1.66666 10 1.66666ZM10 16.6667C6.32502 16.6667 3.33335 13.675 3.33335 9.99999C3.33335 6.32499 6.32502 3.33332 10 3.33332C13.675 3.33332 16.6667 6.32499 16.6667 9.99999C16.6667 13.675 13.675 16.6667 10 16.6667ZM12.9917 5.83332L10 8.82499L7.00835 5.83332L5.83335 7.00832L8.82502 9.99999L5.83335 12.9917L7.00835 14.1667L10 11.175L12.9917 14.1667L14.1667 12.9917L11.175 9.99999L14.1667 7.00832L12.9917 5.83332Z" fill="#50505B"/>
</svg>
