<?xml version="1.0" encoding="UTF-8"?>
<svg id="Layer_1" data-name="Layer 1" xmlns="http://www.w3.org/2000/svg" viewBox="0 0 500 62.63">
  <path d="m401.67,42.68h10.18c.2,0,.36.14.39.35.66,5.41,4.71,9.08,10.02,9.74,5.31.67,13.05-1.17,13.05-7.73,0-5.9-5.23-7.08-13.63-9.18-4.87-1.21-10.67-2.53-14.42-6.12-3.76-3.6-5.22-9.78-4.37-14.8,1.77-10.36,11.34-14.95,21.01-14.95,12.26,0,21.17,6.48,22.18,18.34.02.23-.16.43-.39.43h-9.94c-.2,0-.35-.14-.38-.34-.75-5.83-5.94-8.75-11.53-8.75-6.02,0-9.95,2.78-9.95,7.07s3.75,5.94,7.34,7.02c5.89,1.8,12.3,2.46,17.64,5.73,5.13,3.15,7.61,8.17,7.61,14.1,0,12.21-9.02,19.02-21.42,19.02-14.79,0-23.24-7.08-23.79-19.52,0-.23.18-.42.4-.42" style="fill: #29292d;"/>
  <path d="m233.63,1.17h-39.37c-1.57,0-2.86,1.27-2.86,2.83v54.35c0,1.57,1.28,2.83,2.86,2.83h36.24c.21,0,.38-.17.38-.39v-9.52c0-.21-.17-.39-.38-.39h-28.03v-14.55l21.81.04c.21,0,.38-.17.38-.39v-9.52c0-.2-.17-.38-.38-.38h-21.81v-14.61h31.17c.22,0,.39-.17.39-.39V1.55c0-.22-.17-.39-.39-.39" style="fill: #29292d;"/>
  <path d="m396.31,1.17h-39.37c-1.57,0-2.86,1.27-2.86,2.83v54.35c0,1.57,1.28,2.83,2.86,2.83h36.24c.21,0,.38-.17.38-.39v-9.52c0-.21-.17-.39-.38-.39h-28.03v-14.55l21.81.04c.21,0,.38-.17.38-.39v-9.52c0-.2-.17-.38-.38-.38l-21.81-.04v-14.58h31.17c.22,0,.39-.17.39-.39V1.55c0-.22-.17-.39-.39-.39" style="fill: #29292d;"/>
  <path d="m333.89,37.09l-.36-.83c-.16-.37,0-.8.35-.98.37-.19.76-.4.76-.4,4.46-2.86,7.56-7.38,8.37-12.67,1.1-7.15-2.35-15.24-8.98-18.56-3.48-1.74-7.03-2.49-11.89-2.49h-23.53c-.22,0-.4.17-.4.39v59.21c0,.22.18.39.4.39h10.58c.22,0,.4-.17.4-.39v-20.66c0-1.51,1.22-2.75,2.74-2.75h8.05c1.09,0,1.77.4,2.79,2.33l10.34,21.25c.06.14.2.23.36.23h11.94c.2,0,.3-.13.33-.18.03-.05.11-.2.02-.38l-12.28-23.51Zm-5.01-11.93c-1.71,1.7-3.42,2.56-7.1,2.56h-11.79c-.22,0-.39-.17-.39-.39V10.69c0-.21.17-.39.39-.39h11.79c3.73,0,5.45.82,7.15,2.44,1.59,1.53,2.56,3.2,2.56,6.1,0,2.65-.76,4.47-2.6,6.31" style="fill: #29292d;"/>
  <path d="m499.61,1.15h-48.78c-.21,0-.39.17-.39.38v9.53c0,.21.19.39.39.39h16.98v49.37h11.05V11.43h20.75c.22,0,.39-.17.39-.39V1.52c0-.21-.17-.38-.39-.38" style="fill: #29292d;"/>
  <path d="m130.95,60.66c.06.27-.12.5-.39.5h-10.33c-1.13,0-2.43-1.02-2.88-2.91l-9.76-43.48c-.16-.84-.65-3.54-1.57-3.54h-2.09c-.93,0-1.4,2.69-1.58,3.54l-9.76,43.48c-.45,1.89-1.73,2.91-2.88,2.91h-10.3c-.27,0-.45-.23-.4-.5L92.51,3.44c.33-1.23,1.53-2.1,3.7-2.1h17.53c2.18,0,3.35.87,3.69,2.1l13.52,57.22Z" style="fill: #29292d;"/>
  <path d="m183.68,1.82l-13.52,57.24c-.31,1.23-1.51,2.1-3.69,2.1h-17.53c-2.18,0-3.37-.87-3.7-2.1L131.75,1.82c-.05-.25.13-.47.4-.47h10.3c1.15,0,2.43,1,2.9,2.89l9.74,43.48c.18.84.65,3.54,1.58,3.54h2.09c.91,0,1.41-2.7,1.56-3.54l9.76-43.48c.45-1.89,1.75-2.89,2.88-2.89h10.33c.28,0,.46.22.39.47" style="fill: #29292d;"/>
  <path d="m279.66,43.2c-.39.34-.66.8-.94,1.23-1.16,1.85-2.64,3.59-4.37,4.95-2.34,1.83-5.88,2.76-9.68,2.76-3.54,0-6.62-.86-9.13-2.58-2.5-1.71-4.44-4.13-5.76-7.23-1.33-3.06-2.35-6.79-2.36-11.11,0-.02,0-.05,0-.06s0-.05,0-.06c0-4.31,1.03-8.04,2.36-11.11,1.31-3.1,3.25-5.51,5.76-7.23,2.51-1.71,5.58-2.57,9.13-2.57,3.81,0,7.35.93,9.68,2.76,1.73,1.36,3.21,3.09,4.37,4.94.28.44.54.9.94,1.24.68.58,1.64.71,2.55.68,3.14-.1,6.31-.15,9.46-.22l-.28-1.06c-1.63-6.28-5.68-10.54-8.78-13-4.53-3.55-10.83-5.35-17.86-5.35-5.77,0-10.81,1.32-15.01,3.92-4.2,2.59-7.48,6.26-9.73,10.89-2.23,4.66-3.65,10.07-3.66,16.14,0,0,0,.03,0,.04s0,.03,0,.04c0,6.07,1.43,11.48,3.66,16.14,2.25,4.63,5.53,8.3,9.73,10.9,4.2,2.6,9.24,3.92,15.01,3.92,7.03,0,13.33-1.8,17.86-5.35,3.11-2.46,7.15-6.72,8.78-13l.28-1.06c-3.16-.08-6.32-.13-9.46-.22-.9-.03-1.87.1-2.55.68" style="fill: #29292d;"/>
  <path d="m79.68,1.43h-22.41c-.42,0-.82.11-1.17.3-1.08.56-1.48,1.89-1.08,3.02l5.23,15.5c.41,1.24,1.46,2.17,2.77,2.44l.75.07,5.31-.08c.17,0,.33.11.38.28l4.42,12.92,8.28-31.97c.05-1.32-1.02-2.43-2.38-2.48h-.09" style="fill: #29292d;"/>
  <path d="m42.18,61.15c-.3-.13-2.98-1.52-4.24-3.08-1.19-1.48-2-3.79-2.62-5.59-2.8-8.21-15.32-44.84-15.32-44.84-.37-1.28-.82-2.55-1.36-3.77l-.03-.08c-.52-1.39-1.81-2.34-3.27-2.43H1.76C.84,1.3.06,2.01,0,2.94c-.03.3.05.59.18.85l18.74,54.93c.51,1.4,1.67,2.44,3.27,2.44" style="fill: #29292d;"/>
  <path d="m46.3,3.79c-.51-1.39-1.79-2.35-3.26-2.44l-13.58.03c-.93-.04-1.71.67-1.76,1.6,0,.29.05.58.19.84l18.7,55.07c.57,1.36,1.9,2.25,3.37,2.25h13.58c.87.08,1.65-.56,1.72-1.42v-.29c0-.26-.06-.51-.14-.75L46.3,3.79Z" style="fill: #29292d;"/>
</svg>