<?xml version="1.0" standalone="no"?>
<!DOCTYPE svg PUBLIC "-//W3C//DTD SVG 20010904//EN"
 "http://www.w3.org/TR/2001/REC-SVG-20010904/DTD/svg10.dtd">
<svg version="1.0" xmlns="http://www.w3.org/2000/svg"
 width="700.000000pt" height="700.000000pt" viewBox="0 0 700.000000 700.000000"
 preserveAspectRatio="xMidYMid meet">
<metadata>
Created by potrace 1.14, written by Peter Selinger 2001-2017
</metadata>
<g transform="translate(0.000000,700.000000) scale(0.100000,-0.100000)"
fill="#000000" stroke="none">
<path d="M4548 6815 c-2 -2 -41 -5 -88 -9 -313 -22 -663 -111 -1045 -268 -223
-91 -537 -252 -793 -405 -743 -445 -1422 -1073 -1924 -1779 -227 -320 -386
-656 -423 -894 -61 -399 26 -729 255 -960 92 -93 170 -146 273 -185 158 -59
339 -67 492 -23 141 41 266 128 350 241 54 72 32 160 -49 201 -60 29 -100 16
-171 -57 -109 -112 -194 -150 -340 -150 -150 0 -276 54 -378 163 -168 177
-232 472 -167 765 45 204 158 436 342 703 424 614 1001 1178 1630 1595 129 86
375 237 385 237 2 0 20 11 41 24 42 27 324 170 422 214 232 105 584 229 735
258 11 2 52 10 90 18 259 55 549 64 780 25 411 -70 751 -262 964 -546 93 -124
196 -355 226 -504 29 -141 34 -207 30 -379 -2 -96 -6 -188 -9 -205 -4 -16 -11
-55 -17 -85 -62 -329 -257 -698 -521 -986 -239 -260 -502 -467 -858 -674 -113
-66 -466 -247 -580 -298 -25 -11 -92 -41 -150 -67 -106 -48 -401 -175 -405
-175 -2 0 -15 24 -30 53 -124 237 -291 356 -506 358 -214 2 -368 -132 -375
-327 -5 -127 35 -224 131 -319 130 -130 317 -176 525 -130 41 10 85 19 97 22
18 4 27 -4 50 -46 140 -257 342 -478 593 -646 207 -139 535 -263 793 -301 15
-2 42 -6 60 -9 61 -11 292 -13 357 -4 109 15 122 18 205 39 480 126 978 534
1404 1150 l51 75 -2 260 -3 260 -39 -75 c-246 -477 -659 -961 -1028 -1204
-272 -179 -486 -251 -743 -250 -86 0 -182 8 -235 19 -14 2 -61 12 -105 21
-344 70 -705 284 -915 543 -19 24 -40 48 -45 55 -38 42 -134 211 -124 219 2 2
96 44 209 92 245 104 270 116 470 212 85 42 169 82 185 89 17 8 64 33 105 55
894 486 1411 1037 1639 1747 26 80 67 285 76 377 9 88 10 280 1 365 -6 61 -9
80 -21 155 -3 17 -5 33 -6 37 0 4 -11 48 -24 97 -51 191 -137 376 -243 525
-76 107 -236 267 -344 343 -85 61 -268 165 -311 179 -12 3 -26 10 -32 14 -28
21 -297 102 -380 114 -22 4 -47 8 -55 11 -15 4 -74 12 -165 21 -52 6 -313 13
-317 9z m-1331 -4083 c22 -12 56 -37 76 -57 35 -35 97 -132 97 -152 0 -13 -91
-33 -151 -33 -85 0 -139 19 -185 65 -105 105 -70 213 67 202 30 -3 74 -14 96
-25z"/>
<path d="M3190 5222 c-41 -20 -64 -60 -109 -193 -22 -63 -65 -186 -96 -274
-53 -151 -96 -272 -270 -770 -40 -115 -85 -244 -100 -285 -15 -41 -74 -210
-132 -375 -57 -165 -117 -336 -133 -380 -16 -44 -44 -126 -64 -182 -20 -57
-52 -149 -72 -206 -67 -192 -95 -272 -111 -312 -8 -22 -16 -47 -18 -55 -2 -8
-11 -35 -20 -60 -16 -44 -147 -416 -285 -810 -38 -107 -96 -274 -130 -370 -34
-96 -66 -186 -70 -200 -5 -14 -29 -83 -54 -155 -82 -230 -95 -273 -90 -302 8
-43 50 -91 90 -102 79 -22 147 19 173 105 5 16 37 108 71 204 34 96 66 186 70
200 5 14 27 77 50 140 22 63 54 153 70 200 16 47 39 112 51 145 12 33 53 150
91 260 77 221 162 462 171 485 4 8 24 67 46 130 22 63 69 201 106 305 37 105
84 240 105 300 21 61 64 182 95 270 31 88 62 178 69 200 8 22 41 117 74 210
58 162 106 301 264 750 38 110 82 236 98 280 16 44 46 132 68 195 22 63 72
206 111 316 39 111 71 212 71 224 0 43 -41 99 -84 114 -49 18 -66 17 -106 -2z"/>
</g>
</svg>
