<?xml version="1.0" encoding="utf-8"?>
<!-- Generator: Adobe Illustrator 27.0.0, SVG Export Plug-In . SVG Version: 6.00 Build 0)  -->
<svg version="1.1" id="Layer_1" xmlns="http://www.w3.org/2000/svg" xmlns:xlink="http://www.w3.org/1999/xlink" x="0px" y="0px"
	 viewBox="0 0 64.4 14.5" style="enable-background:new 0 0 64.4 14.5;" xml:space="preserve">
<style type="text/css">
	.st0{fill:#A938AB;}
</style>
<path class="st0" d="M8.7,1.7C8,1.8,7.1,1.9,6.2,2.1c0.3,0.2,0.5,0.5,0.5,0.7c0,0.2-0.1,0.3-0.2,0.6C6,4.9,5.4,8,5.1,11.6
	c0,0.2-0.1,0.4-0.3,0.4c-0.3,0-1-0.6-1-1.7c0-2,0.3-5,0.6-6.9c0-0.2,0.1-0.6,0.1-1C3.4,2.8,2.4,3.2,1.6,3.4c-0.1,0-0.2,0.2-0.3,0.3
	c0,0.1,0,0.3-0.1,0.3C0.6,4.1,0,2.9,0,1.5c0-1,7-1.3,8.3-1.3c0.7,0,2.5,0.8,2.5,1.6c0,0.1-0.2,0.2-0.4,1C9.7,4.5,8.8,7.6,8.6,9.1
	l0.1,0c0.5-0.9,1.9-3.5,2.2-3.5c0.6,0,1.5,0.7,1.5,1s-0.8,2.1-0.8,2.9c0,0.3,0.1,0.5,0.3,0.5c0.5,0,1.4-1,2.1-2.3
	c0,0,0.3,0.2,0.3,0.6c0,0.4-1.3,2.7-2.4,2.7c-0.8,0-1.7-0.5-1.7-1.3C10,8.7,10.9,7,10.9,7l-0.1-0.1c-1.6,2.3-1.9,4.2-2.5,4.2
	c-0.6,0-1.2-0.9-1.2-1.4C7.1,9.1,8.1,3.7,8.7,1.7L8.7,1.7z"/>
<path class="st0" d="M13.1,8.8c0-1.4,1.3-3.1,2.3-3.1s1.9,0.8,1.9,1.5c0,1.1-1.3,2-2.3,2c-0.2,0-0.4,0-0.5-0.1c0.1,0.5,0.4,1,1,1
	c0.9,0,2.2-1,2.8-2.3c0,0,0.3,0.2,0.3,0.6c0,0.4-1.5,2.7-3.3,2.7C14.1,11.1,13.2,10.3,13.1,8.8L13.1,8.8z M14.6,8.4
	c0.1,0,0.2,0,0.3,0c0.6,0,1.2-1,1.2-1.4c0-0.2-0.1-0.4-0.3-0.4C15.4,6.6,14.8,7.6,14.6,8.4L14.6,8.4z"/>
<path class="st0" d="M29.4,1.7c0.3,0.3,0.5,0.6,0.5,0.9c0,0,0,0.1,0,0.2c-0.2,1.2-0.5,2.4-0.8,3.4c1-0.4,1.8-0.6,2.1-0.6
	c0.6,0,1.3,0.6,1.3,1c0,0.2-0.1,0.4-0.2,0.6c-0.2,0.5-0.5,1.5-0.5,2.3c0,0.4,0.1,0.5,0.3,0.5c0.3,0,0.7-0.3,1.1-0.8
	c0-1,0.2-1.7,0.4-2.3C33.7,6.4,33.9,6,34.2,6c0.6,0,1.1,0.7,1.1,1c0,0.2-0.1,0.5-0.2,0.7c0,0.1-0.1,0.3-0.3,0.5
	c-0.1,0.3-0.1,0.7-0.1,1.2c0,0.3,0.1,0.7,0.3,0.7c0.5,0,1.4-1,2.1-2.3c0,0,0.3,0.2,0.3,0.6c0,0.4-1.3,2.7-2.4,2.7
	c-0.6,0-1.3-0.4-1.6-0.9c-0.4,0.5-1,0.9-1.6,0.9c-0.8,0-1.5-0.5-1.5-1.7c0-0.9,0.1-1.7,0.3-2.4c-0.5,0.1-1.1,0.4-1.8,0.7
	c-1.4,4.4-3.2,6.8-5.4,6.8c-1.4,0-2.6-0.8-2.6-1.8c0-2,3.3-4.2,6.3-5.6c0.4-1.8,0.7-3.7,0.8-5.1c-1.9,0.4-3.3,0.9-4.1,1.4
	c-0.1,0.1-0.2,0.2-0.3,0.3c0,0.1,0,0.3-0.1,0.3c-0.7,0-1.2-1.2-1.2-2.6c0-1,7.2-1.5,8.5-1.5c1.6,0,2.2,0.8,2.2,1.1
	c0,0.2-0.4,0.2-1.2,0.3L29.4,1.7L29.4,1.7z M26.5,8.8c-2,1.2-4,2.8-4,4.3c0,0.3,0.1,0.5,0.4,0.5C24.5,13.6,25.7,11.4,26.5,8.8z"/>
<path class="st0" d="M39.2,9L39,8.9c-0.7,1.4-0.8,2.1-1.2,2.1c-0.6,0-1.2-0.9-1.2-1.4c0-0.7,0.8-5.2,1.7-8.1C38.5,1.2,38.7,1,39,1
	c0.4,0,1.4,0.7,1.4,1.5c0,1.4-2,4.8-2,4.8c-0.1,0.5-0.3,1.3-0.3,1.8l0.1,0c0.4-0.9,1.5-3.5,2.5-3.5c0.6,0,1.6,0.7,1.6,1.6
	c0,0.6-0.8,1.1-1.7,1.5c0.3,0.4,0.8,1,1.2,1s1.2-0.6,1.8-1.9c0,0,0.3,0.2,0.3,0.6s-1.3,2.7-2.5,2.7C40.1,11.1,39.4,9.8,39.2,9z
	 M39.6,7.9c0.1,0.1,0.2,0.1,0.3,0.2c0.5-0.4,1.1-0.8,1.1-1.1c0-0.2-0.2-0.3-0.3-0.3C40.4,6.6,40,7.2,39.6,7.9L39.6,7.9z"/>
<path class="st0" d="M43,8.8c0-1.4,1.3-3.1,2.3-3.1s2,0.8,2,1.5c0,1.1-1.3,2-2.3,2c-0.2,0-0.4,0-0.5-0.1c0.1,0.5,0.4,1,1,1
	c0.9,0,2.2-1,2.8-2.3c0,0,0.3,0.2,0.3,0.6c0,0.4-1.5,2.7-3.3,2.7C44,11.1,43,10.3,43,8.8L43,8.8z M44.4,8.4c0.1,0,0.2,0,0.3,0
	c0.6,0,1.2-1,1.2-1.4c0-0.2-0.1-0.4-0.3-0.4C45.3,6.6,44.6,7.6,44.4,8.4L44.4,8.4z"/>
<path class="st0" d="M49.5,6.2c0.4-0.3,0.9-0.5,1.5-0.5c0.8,0,1.6,0.7,1.6,1.8c0,1.7-1.5,3.6-2.5,3.6c-1.2,0-2.3-0.8-2.3-2.5
	c0-2.3,1-6.3,1.2-6.9C49.1,1.3,49.3,1,49.5,1C50.1,1,51,1.8,51,2.2c0,0.1-0.1,0.1-0.3,0.5C50.6,2.8,49.9,4.4,49.5,6.2z M49.6,8.1
	c-0.1,0-0.3-0.1-0.4-0.2c0,0.2,0,0.4,0,0.6c0,1,0.4,1.6,0.7,1.6c0.5,0,1.2-1.5,1.2-2.8c0-0.4-0.1-0.8-0.4-0.8
	c-0.3,0-0.9,0.6-0.9,1.4C49.8,8,49.7,8,49.6,8.1L49.6,8.1z"/>
<path class="st0" d="M58.1,11.6c-0.1,0-0.2-0.1-0.2-0.2c0-0.1,0.1-0.2,0.2-0.4c0.3-0.5,0.8-1.2,1.3-1.9C59,8.6,58.8,8,58.6,7.4
	c-0.2,0.3-0.5,0.6-0.7,0.8c-0.2,1.3-1.4,2.9-2.7,2.9c-1,0-2.3-0.8-2.3-2.1c0-1.9,1.5-3.3,2.3-3.3c0.8,0,1.4,0.7,1.4,1
	c0.1,0,0.6,0.2,0.9,0.5C58,7,58.4,6.7,58.5,6c0-0.2,0.1-0.3,0.3-0.3c0.6,0,1.3,0.4,1.3,0.7c0,0.1,0,0.1,0,0.3c0,0.4,0.1,0.8,0.3,1.2
	c0.9-1.1,1.7-2,2-2.1c0.1,0,0.1,0,0.2,0c0.3,0,1.1,0.5,1.1,0.8c0,0.1-0.2,0.1-0.5,0.4c-0.6,0.5-1.4,1.2-2.2,2
	c0.4,0.8,0.9,1.2,1.1,1.2c0.5,0,1.5-1,2.1-2.3c0,0,0.3,0.2,0.3,0.6c0,0.4-1.2,2.7-2.8,2.7c-0.5,0-1.2-0.5-1.7-1.2
	c-0.5,0.5-1,1.1-1.5,1.6C58.3,11.6,58.2,11.6,58.1,11.6L58.1,11.6z M56.3,7c-0.1-0.1-0.1-0.1-0.3-0.1c-0.8,0-1.7,1.3-1.7,2.3
	c0,0.6,0.2,1,0.8,1c0.6,0,1.2-1,1.5-1.8c-0.3-0.2-0.4-0.4-0.4-0.8C56.2,7.4,56.2,7.2,56.3,7L56.3,7z"/>
</svg>
