<?xml version="1.0" encoding="utf-8"?>
<!-- Generator: Adobe Illustrator 27.0.0, SVG Export Plug-In . SVG Version: 6.00 Build 0)  -->
<svg version="1.1" id="Layer_1" xmlns="http://www.w3.org/2000/svg" xmlns:xlink="http://www.w3.org/1999/xlink" x="0px" y="0px"
	 viewBox="0 0 356 356" style="enable-background:new 0 0 356 356;" xml:space="preserve">
<style type="text/css">
	.st0{fill:#FFFFFF;}
</style>
<rect x="68.8" y="78.7" class="st0" width="215.2" height="195.4"/>
<g>
	<circle cx="178" cy="178" r="178"/>
	<path class="st0" d="M128.8,246.9c-2.3,0-24.1,0-24.1,0c0,0,0-110.2,0-110.2c0-18,10.2-30,31.6-30c19.2,0,27.8,9.8,33.5,25.5
		l40.2,88c1.6,3.3,4.3,5.7,8.8,5.7c5.1,0,8.2-3.1,8.2-7.8l0-109l24.3,0l0,110c0,18.2-10.4,30.2-31.6,30.2c-19.2,0-28-9.8-33.7-25.5
		l-40.2-88c-1.8-4.1-4.3-5.9-8.6-5.9c-5.5,0-8.4,3.1-8.4,8c0,10.6,0,21.2,0,31.8C128.8,195.5,128.8,221.1,128.8,246.9z"/>
</g>
</svg>
