<?xml version="1.0" encoding="UTF-8"?>
<svg id="Layer_1" data-name="Layer 1" xmlns="http://www.w3.org/2000/svg" viewBox="0 0 286.42 37.32">
  <circle cx="126.02" cy="18.66" r="18.66"/>
  <path d="M120.86,25.88c-.24,0-2.52,0-2.52,0,0,0,0-11.55,0-11.55,0-1.88,1.07-3.15,3.32-3.15,2.01,0,2.91,1.03,3.51,2.67l4.21,9.22c.17,.34,.45,.6,.92,.6,.54,0,.86-.32,.86-.81V11.44s2.54,0,2.54,0v11.53c0,1.9-1.09,3.16-3.32,3.16-2.01,0-2.93-1.03-3.53-2.67l-4.21-9.22c-.19-.43-.45-.62-.9-.62-.58,0-.88,.32-.88,.83,0,1.11,0,2.22,0,3.33,0,2.7,0,5.39,0,8.09Z" style="fill: #fff;"/>
  <g>
    <path d="M6.03,11.68H0v-2.38H14.6v2.38h-6.03V28.02h-2.54V11.68Z"/>
    <path d="M21.42,18.66c0-5.55,4.05-9.84,9.76-9.84s9.76,4.28,9.76,9.84-4.05,9.84-9.76,9.84-9.76-4.28-9.76-9.84Zm16.82,0c0-4.1-2.78-7.46-7.06-7.46s-7.06,3.36-7.06,7.46,2.78,7.46,7.06,7.46,7.06-3.36,7.06-7.46Z"/>
    <path d="M47.49,9.3h2.64l4.13,14.97h.05l4.42-14.97h2.91l4.42,14.97h.05l4.13-14.97h2.64l-5.45,18.72h-2.67l-4.55-15.29h-.05l-4.52,15.29h-2.67l-5.47-18.72Z"/>
    <path d="M80.59,9.3h3.33l10.31,15.39h.05V9.3h2.54V28.02h-3.23l-10.42-15.39h-.05v15.39h-2.54V9.3Z"/>
  </g>
  <g>
    <path d="M158.02,11.68h-6.03v-2.38h14.6v2.38h-6.03V28.02h-2.54V11.68Z"/>
    <path d="M173.41,18.66c0-5.55,4.05-9.84,9.76-9.84s9.76,4.28,9.76,9.84-4.05,9.84-9.76,9.84-9.76-4.28-9.76-9.84Zm16.82,0c0-4.1-2.78-7.46-7.06-7.46s-7.06,3.36-7.06,7.46,2.78,7.46,7.06,7.46,7.06-3.36,7.06-7.46Z"/>
    <path d="M199.48,9.3h2.64l4.13,14.97h.05l4.42-14.97h2.91l4.42,14.97h.05l4.13-14.97h2.64l-5.45,18.72h-2.67l-4.55-15.29h-.05l-4.52,15.29h-2.67l-5.47-18.72Z"/>
    <path d="M232.58,9.3h12.08v2.38h-9.55v5.58h8.89v2.38h-8.89v6h10.02v2.38h-12.56V9.3Z"/>
    <path d="M254.03,9.3h6.59c4.78,0,6,2.88,6,5.24s-1.77,4.63-4.6,4.95l5.31,8.54h-3.17l-4.76-8.25h-2.83v8.25h-2.54V9.3Zm2.54,8.25h3.33c2.01,0,4.02-.48,4.02-3.01s-2.01-3.01-4.02-3.01h-3.33v6.03Z"/>
    <path d="M276.03,24.11c.9,1.37,2.46,2.01,3.96,2.01,1.67,0,3.73-1.06,3.73-3.12,0-4.31-9.23-1.64-9.23-8.94,0-2.19,1.85-5.24,6.35-5.24,2.04,0,3.99,.42,5.4,2.14l-2.06,1.88c-.64-.98-1.88-1.64-3.33-1.64-2.8,0-3.65,1.69-3.65,2.86,0,4.73,9.23,1.9,9.23,8.65,0,3.62-2.91,5.79-6.51,5.79-2.41,0-4.71-.82-5.98-2.59l2.09-1.8Z"/>
  </g>
</svg>