<svg width="204" height="151" viewBox="0 0 204 151" fill="none" xmlns="http://www.w3.org/2000/svg">
<g clip-path="url(#clip0_851_1817)">
<path d="M194.89 47.2201L203.08 7.67008C203.46 5.82008 203.11 3.83008 201.9 2.38008C200.69 0.930078 198.99 0.0800781 197.03 0.0800781H140.23C140.01 0.0800781 139.8 0.0900781 139.58 0.110078C135.67 0.510078 133.31 4.68008 134.61 8.39008L148.18 47.2201C149.38 50.8401 153.12 53.5401 156.6 53.5401H171.3L184.42 98.0601L194.88 47.2101L194.89 47.2201Z" fill="white"/>
<path d="M152.68 104.56C152.55 104.21 152.4 103.87 152.23 103.54L132.7 47.24C132.64 46.81 132.54 46.38 132.39 45.97L118.41 6.16C117.22 2.75 113.46 0 110.01 0H83.6999C83.2099 0 82.73 0 82.26 0.07H72.4899C69.0399 0.07 67.23 2.84 68.4 6.24L70.8 13.07C70.9 13.47 71.02 13.87 71.15 14.26L112.74 134.21C113.04 135.08 113.33 135.94 113.63 136.78L116.42 144.94C118.53 150.65 121.6 150.66 125.04 150.65H162.56C166.01 150.65 167.82 147.8 166.65 144.39L152.68 104.56Z" fill="white"/>
<path d="M78.96 88.5701L64.65 47.3101C64.59 46.8801 64.49 46.4501 64.34 46.0401L50.36 6.23011C49.17 2.83011 45.4 0.0701052 41.96 0.0801052H15.64C15.15 0.0801052 14.67 0.0801052 14.21 0.150105H4.44003C0.990032 0.140105 -0.819968 2.92011 0.360032 6.32011L2.76003 13.1501C2.86003 13.5501 2.98003 13.9501 3.11003 14.3401L44.7 134.29C45 135.16 45.29 136.02 45.59 136.86L48.38 145.02C49.57 148.43 53.56 150.66 57 150.65H108.37C108.8 150.65 108.96 150.08 108.59 149.85C95.18 141.63 98.59 140.04 78.97 88.5701H78.96Z" fill="white"/>
</g>
<defs>
<clipPath id="clip0_851_1817">
<rect width="203.22" height="150.65" fill="white"/>
</clipPath>
</defs>
</svg>
