<?xml version="1.0" encoding="UTF-8"?>
<svg id="Layer_1" data-name="Layer 1" xmlns="http://www.w3.org/2000/svg" viewBox="0 0 121.21 15.2">
  <g>
    <path d="m18.42,4.86l.82-3.98c0-.34-.28-.62-.62-.62h-5.54c-.34,0-.62.28-.62.62l1.39,3.98c.12.35.48.62.82.62h1.43l1.28,4.34" style="fill: #fff;"/>
    <path d="m14.51,10.45s-.03-.07-.04-.1l-1.91-5.49s-.02-.08-.03-.12l-1.36-3.88c-.12-.33-.48-.6-.82-.6h-2.57s-.09,0-.14,0h-.95c-.34,0-.51.27-.4.6l.23.67s.02.08.03.12l4.06,11.7c.03.09.06.17.09.25l.27.8c.21.56.5.56.84.56h3.66c.34,0,.51-.28.4-.61l-1.36-3.89Z" style="fill: #fff;"/>
    <path d="m7.7,8.89l-1.4-4.03s-.02-.08-.03-.12l-1.36-3.88c-.12-.33-.48-.6-.82-.6H1.53s-.09,0-.14,0H.43C.1.27-.08.54.03.87l.23.67s.02.08.03.12l4.06,11.7c.03.09.06.17.09.25l.27.8c.12.33.5.55.84.55h5.01s.06-.06.02-.08c-1.31-.8-.98-.96-2.89-5.98Z" style="fill: #fff;"/>
  </g>
  <path d="m28.26.25h3.09l4.03,11.28h.15L39.3.25h2.96l-5.33,14.7h-3.21L28.26.25Z" style="fill: #fff;"/>
  <path d="m31.77,14.95h-3.09l-4.03-11.28h-.15l-3.78,11.28h-2.96L23.1.25h3.21l5.46,14.7Z" style="fill: #fff;"/>
  <path d="m43.09.25h11.04v2.46h-8.25v3.61h5.92v2.33h-5.92v3.84h8.36v2.46h-11.15V.25Z" style="fill: #fff;"/>
  <path d="m65.52,9.32h2.77c0,3.84-2.37,5.88-6.36,5.88-3.67,0-6.87-2.16-6.87-7.2v-.8c0-5.04,3.19-7.2,6.87-7.2,3.99,0,6.36,2.04,6.36,5.67h-2.77l-.02-.38c-.08-1.64-1.13-2.79-3.57-2.79-2.62,0-3.93,1.34-3.93,4.14v1.93c0,2.79,1.3,4.14,3.93,4.14,2.44,0,3.46-1.13,3.57-3l.02-.38Z" style="fill: #fff;"/>
  <path d="m70.04.25h7.58c2.65,0,4.83.99,4.83,3.82v.92c0,1.72-.88,2.77-2.62,2.98v.15c1.47.13,2.35.74,2.35,2.46v1.39c0,.88,0,1.93.21,2.98h-2.79c-.21-1.05-.21-2.02-.21-2.83v-.9c0-1.3-.42-1.72-1.74-1.72h-4.81v5.46h-2.79V.25Zm7.56,6.76c1.36,0,1.91-.67,1.91-1.68v-.94c0-.99-.55-1.68-1.91-1.68h-4.77v4.3h4.77Z" style="fill: #fff;"/>
  <path d="m84.45.25h11.04v2.46h-8.25v3.61h5.92v2.33h-5.92v3.84h8.36v2.46h-11.15V.25Z" style="fill: #fff;"/>
  <path d="m103.6,8.96l-3.36-.52c-2.46-.4-3.78-1.78-3.78-3.82v-.53c0-2.5,2.1-4.09,5.82-4.09s5.73,1.51,5.84,4.81h-2.69l-.02-.38c-.06-1.36-1.03-2.1-3.13-2.1-2.23,0-3.07.67-3.07,1.76v.21c0,1.03.55,1.41,1.93,1.62l3.36.55c2.77.42,4.03,1.81,4.03,3.91v.63c0,2.52-2.1,4.2-6.03,4.2-4.24,0-6.28-1.55-6.38-5.14h2.73l.02.38c.08,1.68,1.26,2.37,3.63,2.37,2.23,0,3.23-.59,3.23-1.83v-.21c0-1.01-.55-1.53-2.14-1.81Z" style="fill: #fff;"/>
  <path d="m113.49,2.71h-4.96V.25h12.68v2.46h-4.93v12.24h-2.79V2.71Z" style="fill: #fff;"/>
</svg>